<?xml version="1.0" standalone="no"?>
<!DOCTYPE svg PUBLIC "-//W3C//DTD SVG 20010904//EN"
 "http://www.w3.org/TR/2001/REC-SVG-20010904/DTD/svg10.dtd">
<svg version="1.0" xmlns="http://www.w3.org/2000/svg"
 width="512.000000pt" height="512.000000pt" viewBox="0 0 512.000000 512.000000"
 preserveAspectRatio="xMidYMid meet">

<g transform="translate(0.000000,512.000000) scale(0.100000,-0.100000)"
fill="#000000" stroke="none">
<path d="M700 5114 c-166 -33 -316 -104 -421 -202 -89 -83 -140 -150 -189
-255 -50 -105 -70 -179 -77 -294 -14 -225 62 -434 220 -600 235 -247 573 -318
896 -188 l88 35 1634 0 c1833 0 1704 -5 1869 76 79 39 109 62 180 133 94 95
142 174 182 301 33 107 33 283 0 390 -40 128 -88 206 -182 301 -73 73 -101 94
-180 132 -163 79 -142 77 -1053 77 -795 0 -803 0 -825 -20 -29 -27 -29 -80 -1
-106 20 -18 53 -19 853 -24 l831 -5 65 -25 c239 -94 383 -313 367 -560 -16
-246 -199 -460 -435 -509 -37 -8 -513 -11 -1588 -11 l-1534 0 43 53 c232 285
233 717 2 1000 l-46 57 575 0 c406 0 582 3 600 11 51 23 55 103 7 128 -13 8
-240 11 -701 11 l-681 0 -48 25 c-86 43 -187 66 -311 70 -63 2 -126 1 -140 -1z
m254 -159 c185 -39 361 -176 445 -345 47 -97 71 -194 71 -295 0 -297 -207
-561 -496 -635 -153 -39 -322 -19 -467 57 -107 56 -221 173 -276 283 -129 262
-81 549 124 756 65 65 98 90 167 123 141 69 285 87 432 56z"/>
<path d="M800 4670 c-59 -16 -127 -60 -139 -88 -21 -50 14 -102 68 -102 21 0
21 -4 21 -240 l0 -241 25 -24 c13 -14 31 -25 39 -25 28 0 64 22 75 47 15 34
15 603 0 637 -14 29 -54 46 -89 36z"/>
<path d="M1933 4680 c-46 -19 -57 -83 -20 -118 23 -22 24 -22 509 -22 l487 0
20 26 c34 43 26 86 -20 109 -23 13 -103 15 -491 14 -255 0 -473 -4 -485 -9z"/>
<path d="M1912 4367 c-27 -29 -28 -67 -3 -98 l19 -24 1022 0 1022 0 19 24 c25
30 24 76 -1 101 -20 20 -33 20 -1038 20 l-1019 0 -21 -23z"/>
<path d="M1915 4075 c-14 -13 -25 -36 -25 -50 0 -14 11 -37 25 -50 l24 -25
1011 0 1011 0 24 25 c34 33 33 77 -1 104 -27 21 -30 21 -1036 21 l-1009 0 -24
-25z"/>
<path d="M4225 3359 c-98 -9 -178 -32 -270 -75 -25 -11 -291 -14 -1690 -16
-1849 -4 -1694 2 -1850 -72 -179 -85 -303 -226 -371 -421 -26 -72 -28 -93 -28
-215 0 -122 2 -143 28 -215 81 -235 256 -400 501 -472 56 -17 167 -18 1720
-21 1391 -2 1665 -5 1690 -16 119 -55 220 -78 351 -78 311 0 581 168 719 447
59 119 74 184 51 219 -21 33 -62 43 -95 25 -18 -11 -34 -38 -57 -100 -50 -134
-109 -220 -210 -300 -189 -150 -457 -186 -672 -88 -341 154 -488 551 -326 885
84 172 250 307 431 350 194 47 411 -1 567 -125 101 -80 160 -166 210 -300 23
-62 39 -89 57 -100 33 -18 74 -8 95 25 23 35 8 100 -51 219 -150 303 -464 477
-800 444z m-556 -306 c-60 -80 -120 -202 -146 -293 -24 -91 -24 -309 0 -400
26 -92 88 -218 147 -294 l51 -66 -1508 0 c-922 0 -1534 4 -1575 10 -314 45
-532 355 -467 662 47 221 240 405 458 437 31 5 739 9 1574 10 l1518 1 -52 -67z"/>
<path d="M975 2905 c-14 -13 -25 -36 -25 -50 0 -14 11 -37 25 -50 l24 -25 481
0 481 0 24 25 c14 13 25 36 25 50 0 14 -11 37 -25 50 l-24 25 -481 0 -481 0
-24 -25z"/>
<path d="M970 2610 c-26 -26 -26 -70 0 -98 l21 -22 1019 0 c1007 0 1020 0
1040 20 11 11 20 33 20 50 0 17 -9 39 -20 50 -20 20 -33 20 -1040 20 -1007 0
-1020 0 -1040 -20z"/>
<path d="M971 2314 c-28 -35 -26 -69 4 -99 l24 -25 1009 0 c1006 0 1009 0
1036 21 34 27 36 77 3 107 l-23 22 -1016 0 -1017 0 -20 -26z"/>
<path d="M4200 2904 c-77 -34 -142 -107 -142 -162 0 -30 43 -72 74 -72 12 0
37 17 57 39 43 46 70 61 108 61 65 0 101 -67 68 -129 -9 -18 -64 -82 -123
-144 -58 -62 -124 -131 -146 -154 -44 -47 -52 -89 -21 -123 17 -19 30 -20 230
-20 238 0 245 2 245 72 0 59 -25 72 -141 76 l-99 4 84 90 c106 112 131 160
131 248 -1 100 -53 179 -142 217 -43 17 -139 16 -183 -3z"/>
<path d="M660 1596 c-165 -35 -310 -116 -427 -239 -158 -166 -234 -375 -220
-600 7 -115 27 -189 77 -294 102 -216 283 -368 517 -435 63 -19 102 -23 208
-23 140 1 242 22 328 68 l42 22 1675 5 1675 5 80 27 c116 40 199 92 290 183
215 215 264 523 128 805 -38 79 -59 108 -132 180 -71 72 -102 95 -181 134
-165 81 -35 76 -1871 76 l-1637 0 -54 24 c-114 51 -188 67 -313 72 -78 2 -143
-1 -185 -10z m314 -156 c121 -31 209 -82 302 -175 128 -128 194 -284 194 -460
0 -303 -222 -579 -515 -640 -150 -31 -294 -12 -434 57 -67 33 -103 60 -166
123 -163 162 -227 376 -180 600 48 232 243 434 477 495 98 25 223 26 322 0z
m3548 -91 c236 -49 420 -264 435 -509 15 -248 -121 -456 -362 -556 l-70 -29
-1563 -3 -1563 -2 47 57 c54 67 126 211 149 298 62 237 3 512 -152 702 l-43
53 1534 0 c1075 0 1551 -3 1588 -11z"/>
<path d="M678 1150 c-38 -29 -39 -80 -2 -109 23 -18 41 -21 124 -21 88 0 98
-2 118 -23 30 -32 28 -71 -4 -96 -23 -18 -41 -21 -124 -21 -88 0 -98 -2 -118
-23 -31 -33 -29 -80 4 -106 23 -18 41 -21 124 -21 88 0 98 -2 118 -23 30 -32
28 -71 -4 -96 -23 -18 -41 -21 -123 -21 -84 0 -100 -3 -119 -20 -32 -30 -30
-82 4 -109 23 -18 41 -21 124 -21 123 0 176 17 229 75 66 71 78 170 30 254
l-21 37 22 37 c13 21 24 61 27 94 7 80 -31 154 -102 198 -45 28 -56 30 -164
33 -107 4 -118 2 -143 -18z"/>
<path d="M1915 1145 c-14 -13 -25 -36 -25 -50 0 -14 11 -37 25 -50 l24 -25
481 0 481 0 24 25 c14 13 25 36 25 50 0 14 -11 37 -25 50 l-24 25 -481 0 -481
0 -24 -25z"/>
<path d="M1933 870 c-46 -19 -57 -83 -20 -118 l23 -22 1017 0 c1004 0 1017 0
1037 20 25 25 26 71 1 101 l-19 24 -1009 2 c-569 1 -1018 -2 -1030 -7z"/>
<path d="M1912 557 c-27 -29 -28 -67 -3 -98 l19 -24 1022 0 1022 0 19 24 c25
30 24 76 -1 101 -20 20 -33 20 -1038 20 l-1019 0 -21 -23z"/>
</g>
</svg>
