<?xml version="1.0" standalone="no"?>
<!DOCTYPE svg PUBLIC "-//W3C//DTD SVG 20010904//EN"
 "http://www.w3.org/TR/2001/REC-SVG-20010904/DTD/svg10.dtd">
<svg version="1.0" xmlns="http://www.w3.org/2000/svg"
 width="512.000000pt" height="512.000000pt" viewBox="0 0 512.000000 512.000000"
 preserveAspectRatio="xMidYMid meet">

<g transform="translate(0.000000,512.000000) scale(0.100000,-0.100000)"
fill="#000000" stroke="none">
<path d="M63 4520 c-55 -33 -65 -66 -61 -206 l3 -124 32 -31 c26 -27 41 -33
87 -37 l56 -5 -2 -246 -3 -246 -50 -5 c-106 -12 -125 -42 -125 -205 0 -161 24
-200 126 -207 l49 -3 0 -645 0 -645 -49 -3 c-102 -7 -126 -46 -126 -207 0
-163 19 -193 125 -205 l50 -5 3 -246 2 -246 -56 -5 c-46 -4 -61 -10 -87 -37
l-32 -31 -3 -128 c-2 -113 -1 -131 17 -159 43 -68 -125 -64 2018 -60 1066 2
1943 4 1948 4 6 0 237 -1 515 -4 467 -3 508 -2 539 14 19 10 44 31 55 46 20
27 21 43 24 300 2 258 1 274 -18 305 -34 55 -73 72 -167 72 l-82 0 -3 688 c-2
557 -6 692 -17 711 -11 20 -11 30 0 65 11 33 14 182 14 776 l0 735 -23 40
c-13 22 -39 52 -59 65 l-37 25 -755 0 -756 0 -37 -23 c-20 -13 -47 -40 -60
-60 -21 -35 -23 -49 -26 -224 -3 -154 -1 -191 12 -216 21 -41 68 -52 105 -24
l26 19 3 178 c1 111 7 184 13 192 9 10 60 13 225 13 l214 0 0 -235 c0 -257 5
-284 55 -323 26 -21 38 -22 226 -22 l199 0 30 28 c19 16 35 43 40 67 5 22 10
140 10 263 l0 222 213 0 c152 0 216 -3 225 -12 9 -9 12 -181 12 -714 0 -625
-2 -704 -16 -718 -14 -14 -92 -16 -710 -16 -460 0 -702 4 -715 10 -18 10 -19
25 -19 410 l0 399 -26 20 c-33 26 -65 27 -95 2 l-24 -19 -3 -403 c-2 -342 0
-409 13 -449 14 -42 14 -50 0 -83 -9 -23 -15 -68 -15 -122 l0 -85 -44 0 c-43
0 -48 3 -148 103 -64 63 -129 117 -171 141 l-67 39 2 211 3 211 56 5 c99 9
119 43 119 205 0 162 -20 196 -119 205 l-56 5 -3 248 -2 247 41 0 c53 0 101
23 122 59 14 23 17 54 17 155 l0 126 -34 38 -34 37 -1339 3 c-1313 2 -1339 2
-1370 -18z m2627 -190 l0 -60 -1270 0 -1270 0 0 60 0 60 1270 0 1270 0 0 -60z
m1408 -267 l2 -213 -130 0 -130 0 0 215 0 216 128 -3 127 -3 3 -212z m-1588
-193 l0 -250 -1090 0 -1090 0 0 250 0 250 1090 0 1090 0 0 -250z m180 -455 l0
-55 -1270 0 -1270 0 0 55 0 55 1270 0 1270 0 0 -55z m-180 -401 c0 -194 0
-196 -21 -191 -42 11 -145 -14 -229 -55 -70 -34 -102 -59 -192 -147 -118 -116
-130 -141 -86 -188 41 -43 74 -32 158 53 191 193 322 231 495 140 74 -38 227
-189 307 -301 220 -311 442 -786 644 -1374 47 -139 60 -189 53 -203 -9 -17
-30 -18 -288 -18 l-279 0 -48 77 c-130 209 -308 403 -444 484 -139 82 -271
100 -405 55 l-70 -24 -44 51 c-110 128 -269 254 -355 279 -21 7 -40 17 -43 24
-5 14 132 299 206 427 56 96 61 122 31 155 -23 25 -77 30 -102 10 -19 -16 -79
-119 -147 -255 l-51 -103 -285 0 c-272 0 -286 -1 -305 -20 -22 -22 -26 -60
-10 -90 18 -34 66 -40 301 -40 l229 0 -17 -35 c-11 -23 -26 -38 -43 -41 -14
-3 -46 -12 -72 -20 -38 -11 -155 -14 -647 -14 l-601 0 0 54 0 55 306 3 306 3
24 28 c29 34 30 56 3 91 l-20 26 -220 0 -219 0 0 650 0 650 1090 0 1090 0 0
-196z m1180 -429 l0 -85 -225 0 -225 0 0 78 c0 43 3 82 7 85 3 4 105 7 225 7
l218 0 0 -85z m408 -127 l-3 -213 -62 -3 -63 -3 0 68 c-1 97 -25 148 -85 174
l-45 20 0 84 0 85 130 0 130 0 -2 -212z m596 196 c3 -9 6 -312 6 -675 l0 -659
-155 0 -155 0 0 238 c0 261 -4 283 -63 326 -26 19 -45 21 -193 24 l-164 3 0
90 0 89 83 0 c92 0 137 16 171 63 20 27 21 44 24 273 l3 244 219 0 c189 0 219
-2 224 -16z m-874 -524 l0 -220 -233 0 -232 0 -48 96 c-41 82 -130 237 -185
322 l-14 22 356 0 356 0 0 -220z m420 -590 l0 -220 -314 0 -315 0 -20 55 c-18
47 -99 241 -147 353 l-14 32 405 0 405 0 0 -220z m-2551 -46 c61 -30 98 -59
184 -144 l108 -107 -83 -84 c-96 -97 -181 -205 -263 -337 l-57 -92 -375 2
c-448 4 -421 -5 -354 121 118 220 227 374 355 503 185 185 315 222 485 138z
m-569 0 c0 -3 -30 -39 -67 -78 -75 -80 -167 -206 -246 -333 l-50 -83 -214 0
-213 0 0 250 0 250 395 0 c217 0 395 -3 395 -6z m1360 -320 c94 -49 247 -198
340 -332 36 -51 67 -97 68 -102 2 -7 -197 -10 -562 -10 -311 0 -566 3 -566 6
0 15 100 156 168 236 74 89 144 151 220 196 74 42 112 53 187 49 59 -3 84 -10
145 -43z m1430 -224 l0 -220 -57 0 -58 0 -2 43 c-1 32 -71 257 -119 381 -5 14
9 16 115 16 l121 0 0 -220z m1060 0 l0 -220 -455 0 -455 0 0 220 0 220 455 0
455 0 0 -220z m-4300 -126 c-6 -14 -10 -41 -10 -60 l0 -34 -255 0 -255 0 0 60
0 60 265 0 265 0 -10 -26z"/>
<path d="M894 2949 c-44 -12 -59 -33 -177 -241 -114 -200 -124 -231 -91 -288
34 -57 50 -60 307 -60 227 0 235 1 268 23 38 25 63 83 53 123 -7 29 -207 380
-232 407 -32 36 -81 49 -128 36z m116 -305 c40 -69 70 -127 68 -130 -3 -2 -71
-3 -151 -2 l-147 3 73 127 c39 71 75 128 78 128 4 0 39 -56 79 -126z"/>
<path d="M2513 2520 c-72 -29 -45 -140 34 -140 32 0 73 37 73 66 0 26 -23 62
-47 73 -28 13 -30 13 -60 1z"/>
<path d="M630 2200 c-25 -25 -26 -71 -1 -101 l19 -24 281 0 c275 0 281 0 302
22 30 30 30 80 0 105 -21 16 -46 18 -302 18 -266 0 -280 -1 -299 -20z"/>
<path d="M2442 1787 c-30 -31 -28 -72 4 -104 20 -20 31 -24 57 -19 40 8 55 23
63 61 14 70 -75 114 -124 62z"/>
<path d="M2165 1665 c-14 -13 -25 -36 -25 -50 0 -35 42 -75 78 -75 36 0 72 37
72 74 0 34 -41 76 -75 76 -14 0 -37 -11 -50 -25z"/>
<path d="M3060 1140 c-35 -35 -25 -92 20 -115 36 -19 83 -4 99 31 16 35 14 47
-10 78 -26 33 -79 36 -109 6z"/>
<path d="M1082 997 c-31 -33 -29 -80 4 -106 54 -42 118 -13 118 54 0 68 -77
100 -122 52z"/>
<path d="M1314 938 c-22 -10 -44 -47 -44 -72 0 -30 41 -66 74 -66 68 0 99 78
51 125 -26 27 -47 30 -81 13z"/>
<path d="M2139 981 c-49 -40 -18 -131 46 -131 37 0 75 37 75 74 0 64 -71 97
-121 57z"/>
<path d="M3411 3354 c-26 -33 -27 -65 -2 -95 17 -21 29 -24 105 -28 94 -3 129
9 145 52 10 28 -5 74 -29 87 -10 6 -59 10 -109 10 -85 0 -91 -1 -110 -26z"/>
<path d="M3411 3114 c-34 -43 -26 -86 20 -109 17 -9 57 -15 103 -15 64 0 79 3
102 23 20 18 27 32 26 58 -1 56 -28 69 -137 69 -89 0 -95 -1 -114 -26z"/>
</g>
</svg>
