<?xml version="1.0" standalone="no"?>
<!DOCTYPE svg PUBLIC "-//W3C//DTD SVG 20010904//EN"
 "http://www.w3.org/TR/2001/REC-SVG-20010904/DTD/svg10.dtd">
<svg version="1.0" xmlns="http://www.w3.org/2000/svg"
 width="512.000000pt" height="512.000000pt" viewBox="0 0 512.000000 512.000000"
 preserveAspectRatio="xMidYMid meet">

<g transform="translate(0.000000,512.000000) scale(0.100000,-0.100000)"
fill="#000000" stroke="none">
<path d="M2280 4710 c-203 -15 -501 -82 -536 -121 -24 -26 -21 -69 6 -91 29
-23 40 -23 130 6 564 179 1207 61 1695 -313 83 -63 236 -212 305 -296 338
-413 490 -973 405 -1494 -18 -109 -44 -222 -55 -234 -4 -4 -22 32 -40 80 -18
48 -39 96 -48 106 -31 36 -113 7 -111 -40 0 -10 33 -103 72 -208 63 -163 77
-192 100 -203 24 -12 32 -11 61 6 46 27 287 210 309 235 23 26 22 62 -3 87
-27 27 -56 25 -99 -7 -20 -15 -51 -38 -70 -52 l-34 -26 6 30 c56 259 72 415
63 605 -30 651 -355 1232 -890 1591 -373 251 -823 371 -1266 339z"/>
<path d="M980 4264 c-161 -20 -187 -26 -202 -45 -25 -30 -22 -56 8 -85 20 -21
32 -25 57 -20 18 3 61 8 97 12 l65 7 -65 -69 c-559 -594 -693 -1505 -331
-2249 95 -195 250 -415 293 -415 25 0 68 40 68 64 0 12 -32 67 -71 122 -129
181 -203 324 -270 524 -186 560 -98 1162 242 1660 58 85 217 275 225 268 2 -2
-4 -46 -12 -96 -9 -51 -14 -99 -11 -107 17 -44 95 -56 116 -17 9 18 71 375 71
412 0 29 -36 60 -67 59 -16 -1 -111 -12 -213 -25z"/>
<path d="M2300 4143 c-151 -12 -363 -70 -505 -138 -290 -139 -543 -392 -679
-679 -54 -112 -101 -256 -123 -379 -23 -127 -23 -381 0 -502 104 -536 472
-960 980 -1126 161 -53 307 -72 497 -66 231 8 409 52 601 147 78 40 227 137
292 192 l38 32 94 -94 95 -94 -44 -46 c-24 -25 -49 -55 -55 -67 -15 -30 -14
-89 3 -121 8 -15 187 -199 398 -410 404 -403 388 -389 468 -382 44 4 73 26
207 162 138 140 148 156 144 243 -1 25 -60 88 -383 413 -211 211 -395 390
-410 398 -32 17 -91 18 -121 3 -12 -6 -42 -31 -67 -55 l-46 -44 -94 95 -94 94
43 53 c151 188 243 376 298 608 36 156 43 391 15 555 -36 211 -108 393 -221
562 -297 444 -800 688 -1331 646z m364 -149 c551 -105 978 -546 1062 -1098 19
-123 13 -354 -11 -466 -114 -522 -509 -914 -1035 -1027 -118 -25 -400 -25
-518 0 -748 163 -1204 888 -1018 1620 136 534 586 924 1139 987 94 11 279 3
381 -16z m1558 -2841 c197 -197 358 -362 358 -368 0 -13 -232 -245 -245 -245
-13 0 -725 712 -725 725 0 13 232 245 245 245 5 0 171 -161 367 -357z"/>
<path d="M2229 3725 c-423 -80 -761 -423 -835 -847 -21 -122 -14 -318 15 -438
26 -104 112 -283 179 -370 259 -340 688 -488 1107 -380 44 11 130 45 190 75
210 103 369 262 470 470 137 279 148 560 35 853 -62 160 -194 334 -340 444
-85 65 -263 151 -370 178 -110 29 -339 36 -451 15z m444 -149 c195 -58 358
-169 477 -327 213 -284 244 -668 79 -978 -326 -609 -1178 -653 -1566 -81 -168
248 -200 592 -81 867 115 267 364 472 648 534 124 28 322 21 443 -15z"/>
<path d="M2845 3060 c-11 -4 -149 -142 -307 -306 -157 -165 -295 -308 -308
-319 l-22 -20 -121 128 c-105 110 -126 127 -153 127 -38 0 -64 -27 -64 -65 0
-24 28 -57 157 -187 136 -137 161 -158 189 -158 28 0 61 32 320 303 373 389
394 412 394 441 0 38 -48 70 -85 56z"/>
<path d="M1340 1233 c-148 -15 -172 -24 -185 -64 -9 -27 131 -378 162 -406 30
-28 43 -29 77 -2 33 26 33 42 -4 134 -16 42 -30 77 -30 78 0 2 69 -31 153 -73
549 -275 1160 -292 1721 -49 99 43 136 71 136 104 0 26 -35 65 -58 65 -10 0
-62 -20 -117 -44 -438 -192 -919 -215 -1370 -65 -125 42 -285 114 -369 166
l-49 31 97 7 c110 8 146 27 146 74 0 65 -40 71 -310 44z"/>
</g>
</svg>
