<?xml version="1.0" standalone="no"?>
<!DOCTYPE svg PUBLIC "-//W3C//DTD SVG 20010904//EN"
 "http://www.w3.org/TR/2001/REC-SVG-20010904/DTD/svg10.dtd">
<svg version="1.0" xmlns="http://www.w3.org/2000/svg"
 width="1920.000000pt" height="1638.000000pt" viewBox="0 0 1920.000000 1638.000000"
 preserveAspectRatio="xMidYMid meet">

<g transform="translate(0.000000,1638.000000) scale(0.100000,-0.100000)"
fill="#000000" stroke="none">
<path d="M3315 16364 c-38 -8 -117 -38 -175 -66 -91 -44 -115 -62 -195 -142
-101 -101 -156 -193 -196 -326 -22 -73 -23 -88 -27 -632 l-3 -557 -852 -3
-852 -3 -96 -27 c-450 -123 -767 -442 -887 -892 l-27 -101 -3 -6235 c-2 -4718
0 -6257 9 -6325 34 -263 156 -510 345 -699 183 -183 411 -300 667 -341 81 -13
1114 -15 8577 -15 7463 0 8496 2 8577 15 490 79 872 437 996 932 l22 88 3
6225 c2 4653 0 6249 -9 6320 -59 494 -411 892 -908 1028 l-96 27 -852 3 -852
3 -4 562 c-4 623 -2 605 -72 753 -92 192 -272 341 -485 401 -60 16 -115 18
-675 18 -677 0 -658 2 -808 -68 -188 -88 -328 -250 -398 -462 -23 -69 -24 -77
-29 -635 l-5 -565 -4407 -3 -4407 -2 -4 562 c-3 623 -2 606 -72 753 -91 191
-268 339 -480 401 -54 16 -119 18 -655 20 -496 2 -607 0 -665 -12z m1250 -453
c38 -17 77 -46 102 -75 78 -89 73 13 73 -1421 l0 -1282 -30 -61 c-35 -68 -82
-115 -149 -146 -45 -20 -61 -21 -590 -24 -643 -3 -619 -6 -716 91 -103 105
-95 -21 -95 1426 0 1378 -3 1312 59 1397 35 47 93 90 148 110 30 10 151 13
588 14 l550 0 60 -29z m11280 8 c65 -24 132 -87 166 -156 l24 -48 0 -1285 c0
-1240 -1 -1287 -19 -1334 -24 -63 -86 -130 -151 -164 l-50 -27 -570 0 -570 0
-47 23 c-60 30 -120 90 -150 150 l-23 47 -3 1274 c-3 1412 -6 1334 62 1423 37
49 85 83 145 104 28 10 162 13 583 14 529 0 549 -1 603 -21z m-13125 -2238 c0
-420 3 -535 15 -606 58 -332 320 -576 660 -616 125 -15 1143 -6 1205 10 273
72 467 251 557 516 l28 80 3 568 3 567 4409 0 4409 0 3 -572 3 -573 31 -88
c45 -125 87 -190 189 -293 75 -75 106 -98 182 -136 165 -83 166 -83 833 -83
541 0 590 1 655 19 269 72 456 250 546 521 23 70 24 73 27 638 l3 567 782 0
c609 -1 799 -4 857 -14 332 -60 583 -320 630 -654 8 -55 10 -1830 8 -6267 l-3
-6190 -23 -73 c-79 -255 -258 -442 -504 -528 l-83 -29 -8505 -3 c-5994 -2
-8524 1 -8568 8 -252 43 -488 237 -578 477 -58 153 -54 -315 -54 6394 0 5600
1 6187 16 6257 52 256 230 469 474 568 125 51 155 52 1003 53 l787 1 0 -519z"/>
<path d="M10400 11173 c-67 -11 -159 -50 -226 -95 -84 -56 -149 -131 -193
-221 -61 -125 -61 -124 -61 -777 0 -642 1 -654 55 -776 14 -31 22 -60 18 -64
-5 -4 -46 -32 -93 -62 -548 -360 -987 -898 -1236 -1518 l-42 -105 -1224 -5
c-1349 -6 -1247 -1 -1376 -68 -147 -76 -269 -234 -301 -390 -7 -35 -11 -255
-11 -647 0 -392 4 -612 11 -647 14 -70 69 -182 116 -238 72 -87 157 -146 283
-194 55 -21 61 -21 1279 -26 l1224 -5 56 -135 c116 -276 267 -535 457 -780
111 -144 395 -429 536 -538 105 -81 300 -218 322 -225 6 -2 -2 -30 -21 -73
-17 -38 -36 -93 -42 -122 -7 -35 -11 -257 -11 -645 0 -657 -1 -649 66 -785 48
-99 147 -198 246 -246 143 -70 55 -66 1473 -66 1406 0 1331 -3 1462 61 130 63
241 187 294 330 l24 64 3 617 c3 663 2 680 -49 793 -13 28 -23 53 -23 57 -1 4
53 44 119 89 546 371 978 905 1215 1502 l43 107 1191 0 c1315 0 1263 -2 1399
64 137 67 244 190 294 340 l28 81 3 591 c3 662 2 678 -64 814 -48 98 -160 212
-254 258 -133 65 -62 62 -1390 62 l-1206 0 -44 113 c-231 590 -684 1148 -1220
1505 -63 42 -117 77 -119 79 -2 1 10 33 27 70 52 115 54 136 50 798 -3 603 -4
611 -26 669 -65 173 -195 304 -363 367 l-64 24 -1305 1 c-718 1 -1316 0 -1330
-3z m2578 -453 c18 -11 41 -34 52 -52 19 -32 20 -52 20 -586 0 -468 -2 -558
-15 -588 -18 -43 -15 -43 -165 16 -235 92 -540 165 -819 196 -208 22 -615 15
-806 -14 -254 -40 -486 -100 -716 -188 -64 -24 -121 -44 -126 -44 -6 0 -18 15
-27 34 -14 30 -16 99 -16 588 0 534 1 554 20 586 11 18 34 41 52 52 32 20 53
20 1273 20 1220 0 1241 0 1273 -20z m-963 -1455 c652 -75 1232 -354 1694 -816
462 -461 742 -1044 817 -1699 20 -174 15 -534 -10 -698 -47 -310 -134 -587
-270 -862 -311 -626 -839 -1114 -1486 -1373 -491 -197 -1009 -252 -1535 -162
-848 145 -1588 675 -2008 1440 -169 308 -276 645 -328 1035 -17 123 -17 507 0
635 44 343 130 633 276 930 135 275 296 503 504 718 489 504 1086 789 1801
860 101 10 428 5 545 -8z m5181 -2181 c15 -11 37 -33 48 -48 21 -27 21 -40 24
-578 3 -541 2 -551 -18 -594 -16 -31 -33 -48 -64 -63 -42 -21 -52 -21 -1155
-21 l-1114 0 7 38 c40 225 48 312 53 550 6 267 -3 417 -38 617 -10 61 -19 113
-19 118 0 4 506 6 1124 5 1118 -3 1125 -3 1152 -24z m-8710 -26 c-3 -24 -12
-86 -21 -138 -49 -314 -43 -711 15 -1042 6 -34 13 -71 16 -81 5 -16 -50 -17
-1130 -15 l-1136 3 -37 38 -38 37 -3 566 c-3 626 -4 611 61 653 32 20 45 21
1156 21 l1124 0 -7 -42z m2029 -3662 c260 -102 540 -171 845 -208 139 -17 555
-16 695 1 312 37 588 106 858 212 53 22 99 39 101 39 2 0 11 -15 20 -34 14
-30 16 -99 16 -588 0 -534 -1 -554 -20 -586 -11 -18 -34 -41 -52 -52 -32 -20
-53 -20 -1273 -20 -1220 0 -1241 0 -1273 20 -18 11 -41 34 -52 52 -19 32 -20
52 -20 586 0 460 2 558 14 587 8 19 19 35 23 35 4 0 58 -20 118 -44z"/>
<path d="M13055 7651 c-25 -13 -385 -366 -975 -956 l-935 -935 -390 388 c-417
415 -413 412 -511 412 -107 -1 -214 -110 -214 -219 0 -82 1 -84 504 -589 288
-290 497 -492 521 -504 49 -26 137 -28 180 -5 17 8 499 485 1072 1059 1116
1118 1063 1060 1063 1159 0 54 -48 139 -98 174 -57 39 -156 47 -217 16z"/>
<path d="M1930 11154 c-105 -28 -180 -72 -265 -158 -58 -59 -90 -100 -114
-150 -61 -128 -62 -144 -59 -810 l3 -601 27 -75 c53 -145 158 -264 290 -331
123 -62 49 -59 1470 -59 l1297 0 78 25 c95 30 185 87 251 160 63 69 95 124
127 219 l26 77 -3 637 -3 637 -24 60 c-76 189 -229 327 -412 370 -94 22 -2605
21 -2689 -1z m2618 -437 c18 -10 42 -32 53 -50 19 -31 19 -50 17 -604 l-3
-571 -25 -27 c-53 -58 14 -55 -1317 -55 -1177 0 -1230 1 -1263 19 -19 10 -45
36 -57 57 l-23 39 0 543 c0 584 0 582 52 630 14 13 38 27 54 32 16 5 580 8
1254 7 1159 -2 1227 -3 1258 -20z"/>
<path d="M6146 11154 c-196 -48 -369 -220 -420 -420 -24 -91 -24 -1239 -1
-1329 51 -194 199 -350 389 -411 l79 -25 1297 1 c1436 0 1348 -4 1481 66 128
67 238 200 282 339 22 69 22 78 22 695 l0 625 -24 73 c-56 171 -190 308 -364
374 l-62 23 -1310 2 c-1105 1 -1319 -1 -1369 -13z m2621 -440 c15 -11 38 -36
51 -54 l22 -34 -2 -560 -3 -561 -24 -34 c-46 -65 30 -61 -1318 -61 -1370 0
-1271 -5 -1320 69 l-23 34 0 559 c0 588 0 591 44 627 49 41 39 40 1318 38
l1227 -2 28 -21z"/>
<path d="M14578 11154 c-158 -38 -313 -163 -381 -305 -63 -133 -62 -124 -62
-789 0 -597 0 -606 22 -675 63 -197 232 -358 425 -404 67 -16 2609 -16 2676 0
157 38 314 164 386 309 66 136 67 152 64 814 -3 578 -4 592 -25 656 -68 198
-229 349 -424 395 -56 13 -232 15 -1344 14 -1055 -1 -1290 -3 -1337 -15z
m2618 -440 c15 -11 37 -33 48 -48 21 -27 21 -40 24 -579 l3 -552 -23 -44 c-45
-88 70 -81 -1329 -81 l-1236 0 -33 23 c-18 12 -43 35 -54 50 -21 28 -21 39
-24 563 -2 363 1 547 8 574 14 53 57 99 100 110 19 4 587 7 1262 7 1222 -2
1227 -2 1254 -23z"/>
<path d="M1950 7535 c-106 -24 -204 -78 -285 -159 -81 -82 -127 -162 -155
-272 -19 -73 -20 -112 -20 -653 0 -642 2 -659 66 -790 51 -103 153 -205 254
-255 143 -70 78 -67 1503 -64 l1282 3 65 23 c193 70 336 222 384 408 24 91 24
1249 1 1339 -47 181 -192 336 -376 403 l-74 27 -1290 2 c-1079 1 -1301 -1
-1355 -12z m2596 -441 c18 -9 43 -31 54 -49 19 -31 20 -48 20 -596 0 -536 -1
-565 -19 -593 -10 -15 -32 -37 -47 -47 -28 -18 -71 -19 -1275 -19 l-1246 0
-34 23 c-71 47 -69 29 -69 637 0 608 -2 590 69 637 l34 23 1239 0 c1118 0
1243 -2 1274 -16z"/>
<path d="M2002 3919 c-225 -29 -412 -185 -483 -400 l-24 -74 0 -620 c0 -687
-2 -661 67 -797 29 -57 59 -95 112 -145 84 -80 143 -114 246 -142 74 -21 90
-21 1355 -21 1416 0 1345 -3 1474 65 128 68 224 174 279 313 l27 67 3 625 c2
447 0 641 -8 680 -43 201 -207 372 -420 437 -50 16 -169 17 -1310 19 -690 1
-1283 -2 -1318 -7z m2538 -447 c19 -9 45 -32 57 -51 l23 -34 0 -561 c0 -538
-1 -562 -20 -593 -10 -18 -31 -40 -47 -50 -26 -17 -91 -18 -1262 -21 -1231 -2
-1234 -2 -1277 18 -31 16 -48 33 -63 64 -20 41 -21 57 -21 582 0 503 2 542 19
580 14 30 30 46 62 62 l44 22 1225 0 c1146 0 1227 -1 1260 -18z"/>
<path d="M6220 3920 c-236 -29 -434 -204 -495 -435 -23 -90 -23 -1238 1 -1329
41 -161 158 -304 305 -374 46 -23 111 -46 144 -52 43 -8 430 -10 1355 -8
l1295 3 62 23 c171 64 299 193 361 363 l27 74 3 605 c3 677 2 687 -65 822 -67
134 -209 247 -369 295 -55 16 -147 18 -1309 19 -687 1 -1279 -2 -1315 -6z
m2540 -452 c83 -43 80 -18 80 -643 0 -626 3 -600 -81 -643 l-44 -22 -1235 2
-1235 3 -33 23 c-64 46 -62 25 -62 640 l0 559 23 34 c49 74 -50 69 1317 69
l1226 0 44 -22z"/>
<path d="M14650 3920 c-229 -28 -422 -190 -493 -415 -22 -69 -22 -79 -22 -675
0 -665 -1 -656 62 -789 46 -97 149 -202 249 -254 136 -70 59 -67 1478 -67
1132 0 1285 2 1340 16 195 50 352 198 419 394 21 64 22 78 25 656 3 657 2 676
-61 809 -73 152 -205 262 -374 312 -53 16 -159 18 -1308 19 -687 1 -1279 -2
-1315 -6z m2546 -456 c15 -11 37 -33 48 -48 21 -27 21 -37 21 -591 0 -554 0
-564 -21 -591 -11 -15 -33 -37 -48 -48 -27 -21 -31 -21 -1276 -21 -1245 0
-1249 0 -1276 21 -15 11 -37 33 -48 48 -20 27 -21 40 -24 544 -2 284 0 541 3
570 7 59 40 106 90 128 24 11 254 13 1267 11 1232 -2 1237 -2 1264 -23z"/>
</g>
</svg>
